<?xml version="1.0" encoding="utf-8"?>
<!-- Generator: Adobe Illustrator 22.1.0, SVG Export Plug-In . SVG Version: 6.00 Build 0)  -->
<svg version="1.1" id="Layer_1" xmlns="http://www.w3.org/2000/svg" xmlns:xlink="http://www.w3.org/1999/xlink" x="0px" y="0px"
	 viewBox="0 0 200 200" style="enable-background:new 0 0 200 200;" xml:space="preserve">
<style type="text/css">
	.st0{fill:#FDFDFE;}
	.st1{fill:#3674DF;}
	.st2{fill:#FCFCFE;}
</style>
<g>
	<path class="st0" d="M69.9,55.7c-10.8-4.3-20.9-8.3-30.8-12.4c-2.8-1.2-3.9-0.9-4.9,2.2c-5.8,18.2-11.8,36.4-18,54.5
		c-1.3,3.7,0,4.6,3.1,5.4c8.7,2.3,17.3,4.7,26,7.1c5.6,1.6,5.6,1.6,2,5.9c-6.6,8-13.1,16-19.7,23.9c-1.8,2.2-2.4,3.3,0.5,5.4
		c16.2,11.4,32.3,23,48.3,34.7c2.5,1.8,3.7,1.7,5.3-1c4.6-7.9,9.5-15.6,14.3-23.4c3.4-5.6,3.4-5.6,6.8-0.2
		c4.9,7.7,9.9,15.4,14.6,23.3c1.7,2.9,2.9,3.5,5.9,1.3c15.2-11.4,30.5-22.6,45.9-33.7c3.3-2.3,3.4-3.8,0.9-6.8
		c-7.1-8.8-13.9-17.8-20.7-26.6c1.1-1.4,2.2-1.5,3.4-1.8c9.8-2.7,19.5-5.5,29.3-8.1c2.9-0.8,4-1.7,2.8-5.1
		c-6.5-18.1-12.9-36.4-19-54.6c-1.2-3.4-2.6-3.4-5.4-2.1c-8.2,3.6-16.6,6.9-24.8,10.4c-2.9,1.2-3.8,0.9-3.4-2.5
		c0.9-10.1,1.4-20.3,2.3-30.4c0.4-4-0.4-5.5-4.9-5.4c-16.8,0.3-33.7,0.1-50.5,0.1c-12.4,0-12.3,0-11,12.6
		C68.9,37.2,69.3,46.1,69.9,55.7z"/>
	<path class="st1" d="M69.9,55.7c-0.6-9.6-1-18.6-1.9-27.5c-1.2-12.6-1.4-12.6,11-12.6c16.8,0,33.7,0.2,50.5-0.1
		c4.4-0.1,5.2,1.4,4.9,5.4c-1,10.1-1.4,20.3-2.3,30.4c-0.3,3.4,0.6,3.7,3.4,2.5c8.3-3.5,16.6-6.8,24.8-10.4c2.8-1.2,4.2-1.3,5.4,2.1
		c6.2,18.3,12.5,36.5,19,54.6c1.2,3.4,0.2,4.3-2.8,5.1c-9.8,2.6-19.6,5.4-29.3,8.1c-1.1,0.3-2.3,0.4-3.4,1.8
		c6.8,8.8,13.6,17.9,20.7,26.6c2.4,3,2.4,4.5-0.9,6.8c-15.4,11-30.7,22.3-45.9,33.7c-3,2.2-4.1,1.7-5.9-1.3
		c-4.7-7.9-9.7-15.5-14.6-23.3c-3.4-5.4-3.4-5.4-6.8,0.2c-4.8,7.8-9.7,15.5-14.3,23.4c-1.6,2.7-2.8,2.8-5.3,1
		c-16-11.7-32.1-23.3-48.3-34.7c-2.8-2-2.3-3.2-0.5-5.4c6.7-7.9,13.2-15.9,19.7-23.9c3.6-4.4,3.6-4.4-2-5.9
		c-8.7-2.4-17.3-4.9-26-7.1c-3.1-0.8-4.4-1.7-3.1-5.4c6.2-18.1,12.2-36.3,18-54.5c1-3.2,2.2-3.4,4.9-2.2
		C49.1,47.5,59.1,51.4,69.9,55.7z M99.1,118.4c0.9,1.2,1.5,2,2,2.8c7.1,11.3,14.3,22.5,21.2,33.9c1.9,3.2,3.2,3.2,5.9,1.1
		c5.1-4.1,10.3-7.9,15.7-11.5c3.1-2,2.8-3.5,0.7-6.1c-8.1-10.1-15.9-20.5-24-30.7c-2-2.6-2.5-3.7,1.5-4.7c12.2-3.1,24.3-6.8,36.5-10
		c3-0.8,4.1-1.7,2.8-5c-2.3-5.9-4.4-11.9-6.2-17.9c-1.1-3.6-2.6-4.2-6-2.7c-11.1,4.9-22.4,9.4-33.6,14.1c-2.2,0.9-4,2.1-3.7-2.1
		c1.1-13.9,1.9-27.9,3-41.8c0.3-3.3-0.6-4.1-3.6-4c-6.7,0.2-13.3,0.3-20,0c-4.1-0.2-5,1.2-4.7,5.1c1.1,13.1,1.8,26.2,3,39.3
		c0.4,4.8-1,4.8-4.8,3.2C73.5,76.5,62,72.1,50.6,67.3c-3.3-1.4-4.6-0.8-5.6,2.7c-1.6,5.8-3.4,11.5-5.7,17c-1.8,4.2-0.1,5.4,3.6,6.3
		c11.6,3,23,6.5,34.6,9.5c4.2,1.1,4.3,2.2,1.6,5.3c-8.6,10.1-17,20.6-25.6,30.7c-2.1,2.5-2.1,3.8,0.7,5.6c5.2,3.4,10.3,6.8,15,10.8
		c4.1,3.6,5.8,2.3,8.2-1.8C84.4,141.8,91.7,130.5,99.1,118.4z"/>
	<path class="st2" d="M99.1,118.4c-7.4,12-14.6,23.4-21.4,35.1c-2.4,4.2-4.1,5.4-8.2,1.8c-4.6-4-9.8-7.4-15-10.8
		c-2.8-1.8-2.8-3.2-0.7-5.6c8.6-10.2,16.9-20.6,25.6-30.7c2.6-3.1,2.5-4.2-1.6-5.3c-11.6-3-23.1-6.5-34.6-9.5
		c-3.7-1-5.4-2.1-3.6-6.3c2.3-5.5,4.1-11.3,5.7-17c1-3.4,2.2-4.1,5.6-2.7c11.3,4.8,22.9,9.1,34.2,13.9c3.8,1.6,5.3,1.5,4.8-3.2
		c-1.2-13.1-1.8-26.2-3-39.3c-0.3-3.9,0.5-5.3,4.7-5.1c6.6,0.3,13.3,0.2,20,0c3.1-0.1,3.9,0.7,3.6,4c-1.2,13.9-1.9,27.9-3,41.8
		c-0.3,4.2,1.5,3,3.7,2.1c11.2-4.7,22.5-9.2,33.6-14.1c3.4-1.5,5-1,6,2.7c1.8,6,3.9,12,6.2,17.9c1.3,3.3,0.2,4.2-2.8,5
		c-12.2,3.2-24.3,6.9-36.5,10c-3.9,1-3.5,2.2-1.5,4.7c8,10.2,15.9,20.6,24,30.7c2.1,2.6,2.4,4.1-0.7,6.1
		c-5.4,3.6-10.6,7.5-15.7,11.5c-2.7,2.2-4,2.1-5.9-1.1c-6.9-11.4-14.1-22.6-21.2-33.9C100.6,120.4,100,119.7,99.1,118.4z"/>
</g>
</svg>
